<svg width="23" height="22" viewBox="0 0 23 22" fill="none" xmlns="http://www.w3.org/2000/svg">
<path d="M8 1H3.33333C2.71449 1 2.121 1.23773 1.68342 1.66089C1.24583 2.08405 1 2.65797 1 3.25641V7.76923M8 1H19.6667C20.2855 1 20.879 1.23773 21.3166 1.66089C21.7542 2.08405 22 2.65797 22 3.25641V7.76923M8 1V21.3077M1 7.76923V19.0513C1 19.6497 1.24583 20.2236 1.68342 20.6468C2.121 21.07 2.71449 21.3077 3.33333 21.3077H8M1 7.76923H22M22 7.76923V19.0513C22 19.6497 21.7542 20.2236 21.3166 20.6468C20.879 21.07 20.2855 21.3077 19.6667 21.3077H8" stroke="#08AC64" stroke-linecap="round" stroke-linejoin="round"/>
</svg>
