<svg width="22" height="22" viewBox="0 0 22 22" fill="none" xmlns="http://www.w3.org/2000/svg">
<path d="M7.5 1H2.83333C2.21449 1 1.621 1.23773 1.18342 1.66089C0.745833 2.08405 0.5 2.65797 0.5 3.25641V7.76923M7.5 1H19.1667C19.7855 1 20.379 1.23773 20.8166 1.66089C21.2542 2.08405 21.5 2.65797 21.5 3.25641V7.76923M7.5 1V21.3077M0.5 7.76923V19.0513C0.5 19.6497 0.745833 20.2236 1.18342 20.6468C1.621 21.07 2.21449 21.3077 2.83333 21.3077H7.5M0.5 7.76923H21.5M21.5 7.76923V19.0513C21.5 19.6497 21.2542 20.2236 20.8166 20.6468C20.379 21.07 19.7855 21.3077 19.1667 21.3077H7.5" stroke="#1E1E1E" stroke-linecap="round" stroke-linejoin="round"/>
</svg>
