<svg width="394" height="846" viewBox="0 0 394 846" fill="none" xmlns="http://www.w3.org/2000/svg">
<rect width="390" height="780" transform="translate(2 66)" fill="#007AFF" fill-opacity="0.1"/>
<rect x="21" y="758" width="353" height="45" rx="22.5" fill="#0076FE"/>
<path d="M48.3213 774.433C49.3783 774.438 50.3218 774.607 51.1519 774.939C51.9875 775.265 52.6405 775.728 53.1108 776.325C53.5812 776.917 53.8164 777.604 53.8164 778.384C53.8164 779.114 53.6172 779.764 53.2188 780.334C52.8258 780.899 52.2725 781.353 51.5586 781.696C50.8503 782.033 50.0312 782.241 49.1016 782.318V785.24H55.1611V786.552H41.5479V785.24H47.541V782.318C46.6169 782.241 45.8006 782.033 45.0923 781.696C44.384 781.353 43.8306 780.899 43.4321 780.334C43.0392 779.764 42.8428 779.114 42.8428 778.384C42.8428 777.604 43.078 776.917 43.5483 776.325C44.0187 775.728 44.6689 775.265 45.499 774.939C46.3291 774.607 47.2699 774.438 48.3213 774.433ZM48.3213 775.728C47.5632 775.722 46.8825 775.83 46.2793 776.051C45.6816 776.267 45.214 776.58 44.8765 776.989C44.5389 777.393 44.3701 777.858 44.3701 778.384C44.3701 778.932 44.5389 779.41 44.8765 779.82C45.214 780.229 45.6816 780.545 46.2793 780.766C46.877 780.987 47.5576 781.101 48.3213 781.106C49.0905 781.101 49.7739 780.987 50.3716 780.766C50.9748 780.545 51.4451 780.229 51.7827 779.82C52.1203 779.41 52.2891 778.932 52.2891 778.384C52.2891 777.858 52.1203 777.393 51.7827 776.989C51.4451 776.58 50.9748 776.267 50.3716 776.051C49.7684 775.83 49.085 775.722 48.3213 775.728ZM68.2432 778.201H58.0332V773.752H59.5771V776.923H68.2432V778.201ZM69.8369 780.774H56.2236V779.513H69.8369V780.774ZM68.127 785.605H59.4941V786.983H68.6416V788.229H57.917V784.443H66.5664V783.198H57.8838V781.97H68.127V785.605ZM82.5205 779.562H84.9111V780.874H82.5205V788.411H80.96V773.536H82.5205V779.562ZM79.665 777.155H70.8496V775.86H74.5186V773.735H76.0957V775.86H79.665V777.155ZM75.3154 778.251C76.0182 778.251 76.6491 778.398 77.208 778.691C77.7669 778.984 78.2069 779.394 78.5278 779.919C78.8488 780.445 79.012 781.04 79.0176 781.704C79.012 782.374 78.8488 782.971 78.5278 783.497C78.2069 784.023 77.7669 784.432 77.208 784.726C76.6491 785.019 76.0182 785.168 75.3154 785.174C74.6071 785.168 73.9707 785.019 73.4062 784.726C72.8473 784.432 72.4074 784.023 72.0864 783.497C71.771 782.971 71.6133 782.374 71.6133 781.704C71.6133 781.04 71.771 780.445 72.0864 779.919C72.4074 779.394 72.8473 778.984 73.4062 778.691C73.9707 778.398 74.6071 778.251 75.3154 778.251ZM75.3154 779.546C74.9004 779.546 74.5241 779.637 74.1865 779.82C73.849 780.002 73.5861 780.257 73.3979 780.583C73.2098 780.91 73.1185 781.284 73.124 781.704C73.1185 782.13 73.2098 782.507 73.3979 782.833C73.5861 783.16 73.8462 783.411 74.1782 783.588C74.5158 783.765 74.8949 783.851 75.3154 783.846C75.7305 783.851 76.104 783.765 76.436 783.588C76.7736 783.411 77.0365 783.16 77.2246 782.833C77.4128 782.507 77.5068 782.13 77.5068 781.704C77.5068 781.284 77.4128 780.91 77.2246 780.583C77.0365 780.257 76.7736 780.002 76.436 779.82C76.104 779.637 75.7305 779.546 75.3154 779.546ZM93.2119 776.06H96.4492V773.553H98.0264V784.394H96.4492V780.542H93.2119V781.837H86.3057V774.798H93.2119V776.06ZM87.8662 780.592H91.668V776.076H87.8662V780.592ZM98.3584 788.096H88.3145V783.397H89.9082V786.817H98.3584V788.096ZM96.4492 779.247V777.354H93.2119V779.247H96.4492ZM112.021 779.596H118.064V780.874H104.451V779.596H110.461V777.969H112.021V779.596ZM116.819 775.18H112.312C112.395 775.6 112.666 775.99 113.125 776.35C113.585 776.704 114.182 776.998 114.918 777.23C115.654 777.462 116.465 777.609 117.351 777.67L116.836 778.849C115.956 778.771 115.14 778.616 114.387 778.384C113.64 778.151 112.995 777.85 112.453 777.479C111.911 777.103 111.512 776.671 111.258 776.184C110.998 776.671 110.597 777.103 110.054 777.479C109.512 777.85 108.864 778.151 108.112 778.384C107.359 778.616 106.543 778.771 105.663 778.849L105.148 777.67C106.023 777.609 106.825 777.462 107.556 777.23C108.292 776.998 108.889 776.704 109.349 776.35C109.813 775.99 110.087 775.6 110.17 775.18H105.713V773.968H116.819V775.18ZM116.77 783.912H105.713V782.7H110.461V781.389H112.021V782.7H116.77V783.912ZM111.225 784.543C112.68 784.543 113.801 784.712 114.586 785.049C115.378 785.381 115.773 785.866 115.773 786.502C115.773 787.144 115.378 787.634 114.586 787.971C113.801 788.309 112.68 788.478 111.225 788.478C109.775 788.478 108.662 788.309 107.888 787.971C107.113 787.634 106.726 787.144 106.726 786.502C106.726 785.866 107.113 785.381 107.888 785.049C108.662 784.712 109.775 784.543 111.225 784.543ZM111.225 785.622C110.278 785.622 109.559 785.697 109.066 785.846C108.574 785.99 108.33 786.209 108.336 786.502C108.33 786.801 108.577 787.028 109.075 787.183C109.573 787.338 110.289 787.41 111.225 787.398C112.171 787.404 112.89 787.329 113.383 787.174C113.881 787.025 114.135 786.801 114.146 786.502C114.13 785.915 113.156 785.622 111.225 785.622ZM132.724 782.567H119.16V781.306H132.724V782.567ZM131.196 788.096H120.87V783.779H122.464V786.817H131.196V788.096ZM125.934 774.034C127.002 774.029 127.934 774.145 128.731 774.383C129.533 774.621 130.153 774.964 130.59 775.412C131.028 775.86 131.246 776.392 131.246 777.006C131.246 777.626 131.028 778.162 130.59 778.616C130.159 779.064 129.542 779.41 128.739 779.654C127.937 779.897 127.002 780.022 125.934 780.027C124.86 780.022 123.922 779.897 123.12 779.654C122.323 779.41 121.706 779.064 121.269 778.616C120.837 778.162 120.621 777.626 120.621 777.006C120.621 776.392 120.837 775.86 121.269 775.412C121.706 774.964 122.323 774.621 123.12 774.383C123.922 774.145 124.86 774.029 125.934 774.034ZM125.934 775.296C125.181 775.296 124.525 775.365 123.966 775.503C123.413 775.642 122.987 775.841 122.688 776.101C122.389 776.356 122.243 776.657 122.248 777.006C122.243 777.366 122.386 777.675 122.68 777.936C122.979 778.196 123.405 778.395 123.958 778.533C124.517 778.666 125.175 778.732 125.934 778.732C126.692 778.732 127.347 778.666 127.901 778.533C128.454 778.395 128.878 778.196 129.171 777.936C129.47 777.675 129.619 777.366 129.619 777.006C129.619 776.657 129.47 776.356 129.171 776.101C128.872 775.841 128.446 775.642 127.893 775.503C127.339 775.365 126.686 775.296 125.934 775.296ZM150.321 788.444H148.744V773.536H150.321V788.444ZM140.41 778.6H144.411V774.781H145.972V784.875H138.833V774.781H140.41V778.6ZM144.411 783.58V779.845H140.41V783.58H144.411ZM164.781 776.558V776.74C164.77 777.974 164.731 779.059 164.665 779.994C164.604 780.929 164.46 782.008 164.233 783.231L162.689 783.065C162.85 782.23 162.966 781.441 163.038 780.7C163.116 779.953 163.163 779.283 163.179 778.691C163.196 778.093 163.204 777.382 163.204 776.558V776.242H154.09V774.964H164.781V776.558ZM166.259 786.402H152.695V785.091H155.899V780.276H157.477V785.091H159.618V780.276H161.162V785.091H166.259V786.402ZM175.672 776.043C175.672 776.984 175.647 777.9 175.597 778.791C175.547 779.681 175.428 780.708 175.24 781.87L173.68 781.754C173.846 780.691 173.956 779.742 174.012 778.907C174.067 778.066 174.097 777.233 174.103 776.408H168.068V775.13H175.672V776.043ZM171.854 783.837C173.63 783.771 175.19 783.652 176.535 783.48L176.618 784.659C174.305 785.024 171.472 785.207 168.118 785.207H167.421L167.238 783.929C168.594 783.918 169.612 783.904 170.293 783.887V779.38H171.854V783.837ZM178.976 779.679H181.25V781.023H178.976V788.411H177.382V773.536H178.976V779.679ZM197.935 777.238H200.06V778.583H197.935V782.302H196.357V773.536H197.935V777.238ZM197.935 786.037H189.717V787.166H198.482V788.262H188.14V785.024H196.374V784.028H188.106V782.933H197.935V786.037ZM186.131 780.891C187.791 780.891 189.086 780.877 190.016 780.849V780.011C189.147 779.933 188.469 779.726 187.982 779.388C187.495 779.051 187.254 778.605 187.26 778.052C187.254 777.653 187.395 777.31 187.683 777.022C187.971 776.729 188.38 776.508 188.912 776.358C189.448 776.203 190.076 776.126 190.796 776.126C191.51 776.126 192.132 776.203 192.664 776.358C193.195 776.508 193.604 776.729 193.892 777.022C194.185 777.31 194.332 777.653 194.332 778.052C194.332 778.6 194.089 779.042 193.602 779.38C193.12 779.717 192.451 779.928 191.593 780.011V780.791C193.076 780.719 194.382 780.603 195.511 780.442L195.644 781.472C194.232 781.704 192.78 781.854 191.286 781.92C189.797 781.986 188.134 782.02 186.297 782.02L186.131 780.891ZM195.096 775.694H186.513V774.599H190.016V773.403H191.593V774.599H195.096V775.694ZM190.796 777.155C190.154 777.155 189.653 777.236 189.293 777.396C188.934 777.551 188.754 777.77 188.754 778.052C188.754 778.351 188.934 778.586 189.293 778.757C189.659 778.929 190.16 779.015 190.796 779.015C191.427 779.015 191.922 778.929 192.282 778.757C192.641 778.586 192.821 778.351 192.821 778.052C192.821 777.77 192.641 777.551 192.282 777.396C191.922 777.236 191.427 777.155 190.796 777.155ZM214.503 782.036H200.923V780.774H206.949V779.197H202.616V774.217H212.826V775.462H204.177V777.936H212.926V779.197H208.477V780.774H214.503V782.036ZM207.696 782.999C208.764 782.999 209.68 783.104 210.444 783.314C211.213 783.525 211.802 783.835 212.212 784.244C212.621 784.648 212.826 785.135 212.826 785.705C212.826 786.275 212.621 786.762 212.212 787.166C211.808 787.57 211.221 787.877 210.452 788.087C209.683 788.298 208.764 788.406 207.696 788.411C206.623 788.406 205.699 788.298 204.924 788.087C204.155 787.877 203.562 787.57 203.147 787.166C202.738 786.762 202.533 786.275 202.533 785.705C202.533 785.135 202.738 784.648 203.147 784.244C203.562 783.835 204.155 783.525 204.924 783.314C205.699 783.104 206.623 782.999 207.696 782.999ZM207.696 784.228C206.556 784.228 205.676 784.358 205.057 784.618C204.437 784.872 204.127 785.235 204.127 785.705C204.127 786.181 204.437 786.546 205.057 786.801C205.682 787.05 206.562 787.172 207.696 787.166C208.82 787.177 209.691 787.055 210.311 786.801C210.936 786.541 211.249 786.175 211.249 785.705C211.249 785.235 210.936 784.872 210.311 784.618C209.691 784.358 208.82 784.228 207.696 784.228ZM229.179 782.567H215.615V781.306H229.179V782.567ZM227.651 788.096H217.325V783.779H218.919V786.817H227.651V788.096ZM222.389 774.034C223.457 774.029 224.389 774.145 225.186 774.383C225.988 774.621 226.608 774.964 227.045 775.412C227.483 775.86 227.701 776.392 227.701 777.006C227.701 777.626 227.483 778.162 227.045 778.616C226.614 779.064 225.997 779.41 225.194 779.654C224.392 779.897 223.457 780.022 222.389 780.027C221.315 780.022 220.377 779.897 219.575 779.654C218.778 779.41 218.161 779.064 217.724 778.616C217.292 778.162 217.076 777.626 217.076 777.006C217.076 776.392 217.292 775.86 217.724 775.412C218.161 774.964 218.778 774.621 219.575 774.383C220.377 774.145 221.315 774.029 222.389 774.034ZM222.389 775.296C221.636 775.296 220.98 775.365 220.421 775.503C219.868 775.642 219.442 775.841 219.143 776.101C218.844 776.356 218.698 776.657 218.703 777.006C218.698 777.366 218.841 777.675 219.135 777.936C219.434 778.196 219.86 778.395 220.413 778.533C220.972 778.666 221.631 778.732 222.389 778.732C223.147 778.732 223.803 778.666 224.356 778.533C224.909 778.395 225.333 778.196 225.626 777.936C225.925 777.675 226.074 777.366 226.074 777.006C226.074 776.657 225.925 776.356 225.626 776.101C225.327 775.841 224.901 775.642 224.348 775.503C223.794 775.365 223.141 775.296 222.389 775.296ZM232.748 783.431C232.754 782.733 232.823 782.169 232.956 781.737C233.094 781.3 233.285 780.951 233.528 780.691C233.772 780.426 234.098 780.166 234.508 779.911C235.327 779.402 235.736 778.766 235.736 778.002C235.736 777.664 235.656 777.368 235.496 777.114C235.341 776.854 235.125 776.654 234.848 776.516C234.577 776.378 234.275 776.309 233.943 776.309C233.633 776.309 233.343 776.375 233.072 776.508C232.801 776.635 232.576 776.832 232.399 777.097C232.228 777.363 232.128 777.692 232.101 778.085H230.308C230.33 777.404 230.501 776.818 230.822 776.325C231.149 775.827 231.583 775.451 232.125 775.196C232.668 774.942 233.274 774.814 233.943 774.814C234.652 774.814 235.277 774.95 235.819 775.221C236.367 775.487 236.791 775.86 237.089 776.342C237.394 776.823 237.546 777.377 237.546 778.002C237.546 778.644 237.402 779.2 237.114 779.67C236.826 780.135 236.406 780.536 235.853 780.874C235.509 781.079 235.238 781.292 235.039 781.513C234.845 781.735 234.699 781.997 234.599 782.302C234.505 782.606 234.452 782.982 234.441 783.431V783.53H232.748V783.431ZM233.661 787.116C233.451 787.116 233.252 787.064 233.063 786.958C232.881 786.853 232.737 786.709 232.632 786.527C232.527 786.344 232.477 786.148 232.482 785.938C232.477 785.727 232.527 785.531 232.632 785.348C232.737 785.166 232.881 785.022 233.063 784.917C233.252 784.811 233.451 784.759 233.661 784.759C233.866 784.759 234.06 784.811 234.242 784.917C234.425 785.022 234.569 785.166 234.674 785.348C234.785 785.531 234.84 785.727 234.84 785.938C234.84 786.148 234.785 786.344 234.674 786.527C234.569 786.709 234.425 786.853 234.242 786.958C234.06 787.064 233.866 787.116 233.661 787.116Z" fill="#FCFFFF"/>
<g filter="url(#filter0_dd_331_3899)">
<g clip-path="url(#clip0_331_3899)">
<path d="M328 781C328 769.954 336.954 761 348 761V761C359.046 761 368 769.954 368 781V781C368 792.046 359.046 801 348 801V801C336.954 801 328 792.046 328 781V781Z" fill="#FCFFFF"/>
<path d="M351.544 791.645L347.396 782.311L358.805 770.901L351.544 791.645ZM346.688 781.604L337.354 777.455L358.098 770.194L346.688 781.604Z" stroke="#007AFF" stroke-linecap="round" stroke-linejoin="round"/>
</g>
</g>
<path d="M30 690.5C30 673.103 44.103 659 61.5 659H392V722H61.5C44.103 722 30 707.897 30 690.5V690.5Z" fill="#FCFFFF"/>
<line y1="-0.5" x2="318" y2="-0.5" transform="matrix(1 1.74846e-07 1.74846e-07 -1 34 168)" stroke="#0076FE"/>
<path d="M151.359 150.227L154.254 147.18C154.637 146.777 154.928 146.453 155.127 146.207C155.33 145.957 155.482 145.717 155.584 145.486C155.689 145.252 155.742 145.008 155.742 144.754C155.742 144.473 155.668 144.223 155.52 144.004C155.371 143.785 155.168 143.615 154.91 143.494C154.656 143.373 154.371 143.312 154.055 143.312C153.723 143.312 153.432 143.379 153.182 143.512C152.932 143.645 152.738 143.832 152.602 144.074C152.469 144.316 152.402 144.594 152.402 144.906H151.406C151.402 144.414 151.516 143.979 151.746 143.6C151.98 143.221 152.303 142.926 152.713 142.715C153.123 142.504 153.582 142.398 154.09 142.398C154.594 142.398 155.045 142.502 155.443 142.709C155.846 142.916 156.16 143.199 156.387 143.559C156.613 143.918 156.727 144.316 156.727 144.754C156.727 145.078 156.668 145.389 156.551 145.686C156.434 145.979 156.236 146.305 155.959 146.664C155.686 147.02 155.293 147.461 154.781 147.988L152.836 149.992V150.062H156.879V151H151.371L151.359 150.227ZM161.691 151.117C161.066 151.117 160.531 150.947 160.086 150.607C159.645 150.268 159.307 149.771 159.072 149.119C158.842 148.467 158.727 147.68 158.727 146.758C158.727 145.848 158.844 145.066 159.078 144.414C159.312 143.758 159.652 143.258 160.098 142.914C160.543 142.57 161.074 142.398 161.691 142.398C162.309 142.398 162.84 142.57 163.285 142.914C163.73 143.258 164.07 143.758 164.305 144.414C164.539 145.066 164.656 145.848 164.656 146.758C164.656 147.68 164.539 148.467 164.305 149.119C164.074 149.771 163.736 150.268 163.291 150.607C162.846 150.947 162.312 151.117 161.691 151.117ZM161.691 150.18C162.098 150.18 162.445 150.047 162.734 149.781C163.023 149.516 163.244 149.127 163.396 148.615C163.549 148.104 163.625 147.484 163.625 146.758C163.625 146.031 163.549 145.41 163.396 144.895C163.244 144.379 163.023 143.986 162.734 143.717C162.445 143.447 162.098 143.312 161.691 143.312C161.285 143.312 160.936 143.447 160.643 143.717C160.354 143.986 160.131 144.379 159.975 144.895C159.822 145.41 159.746 146.031 159.746 146.758C159.746 147.484 159.822 148.104 159.975 148.615C160.127 149.127 160.348 149.516 160.637 149.781C160.93 150.047 161.281 150.18 161.691 150.18ZM166.551 150.227L169.445 147.18C169.828 146.777 170.119 146.453 170.318 146.207C170.521 145.957 170.674 145.717 170.775 145.486C170.881 145.252 170.934 145.008 170.934 144.754C170.934 144.473 170.859 144.223 170.711 144.004C170.562 143.785 170.359 143.615 170.102 143.494C169.848 143.373 169.562 143.312 169.246 143.312C168.914 143.312 168.623 143.379 168.373 143.512C168.123 143.645 167.93 143.832 167.793 144.074C167.66 144.316 167.594 144.594 167.594 144.906H166.598C166.594 144.414 166.707 143.979 166.938 143.6C167.172 143.221 167.494 142.926 167.904 142.715C168.314 142.504 168.773 142.398 169.281 142.398C169.785 142.398 170.236 142.502 170.635 142.709C171.037 142.916 171.352 143.199 171.578 143.559C171.805 143.918 171.918 144.316 171.918 144.754C171.918 145.078 171.859 145.389 171.742 145.686C171.625 145.979 171.428 146.305 171.15 146.664C170.877 147.02 170.484 147.461 169.973 147.988L168.027 149.992V150.062H172.07V151H166.562L166.551 150.227ZM176.871 151.117C176.367 151.117 175.908 151.021 175.494 150.83C175.084 150.635 174.756 150.367 174.51 150.027C174.268 149.684 174.137 149.297 174.117 148.867H175.137C175.164 149.117 175.258 149.344 175.418 149.547C175.578 149.746 175.785 149.904 176.039 150.021C176.293 150.135 176.57 150.191 176.871 150.191C177.23 150.191 177.555 150.109 177.844 149.945C178.133 149.781 178.359 149.557 178.523 149.271C178.688 148.986 178.77 148.668 178.77 148.316C178.77 147.953 178.684 147.627 178.512 147.338C178.344 147.045 178.109 146.816 177.809 146.652C177.512 146.484 177.176 146.398 176.801 146.395C176.047 146.383 175.52 146.637 175.219 147.156H174.199L174.797 142.516H179.391V143.453H175.676L175.359 145.938H175.441C175.633 145.789 175.865 145.67 176.139 145.58C176.412 145.49 176.695 145.445 176.988 145.445C177.52 145.445 177.998 145.568 178.424 145.814C178.854 146.057 179.189 146.395 179.432 146.828C179.678 147.262 179.801 147.75 179.801 148.293C179.801 148.832 179.674 149.316 179.42 149.746C179.166 150.176 178.816 150.512 178.371 150.754C177.926 150.996 177.426 151.117 176.871 151.117ZM190.027 149.254H189.102V145.645H186.102V144.906H189.102V143.652H186.102V142.914H189.102V141.543H190.027V149.254ZM190.309 151.727H183.312V148.598H184.238V150.953H190.309V151.727ZM182.938 146.922C183.727 146.918 184.471 146.889 185.17 146.834C185.873 146.779 186.598 146.684 187.344 146.547L187.438 147.309C186.648 147.457 185.891 147.559 185.164 147.613C184.441 147.668 183.652 147.699 182.797 147.707H182.012V142.293H182.938V146.922ZM198.914 151.117C198.41 151.117 197.951 151.021 197.537 150.83C197.127 150.635 196.799 150.367 196.553 150.027C196.311 149.684 196.18 149.297 196.16 148.867H197.18C197.207 149.117 197.301 149.344 197.461 149.547C197.621 149.746 197.828 149.904 198.082 150.021C198.336 150.135 198.613 150.191 198.914 150.191C199.273 150.191 199.598 150.109 199.887 149.945C200.176 149.781 200.402 149.557 200.566 149.271C200.73 148.986 200.812 148.668 200.812 148.316C200.812 147.953 200.727 147.627 200.555 147.338C200.387 147.045 200.152 146.816 199.852 146.652C199.555 146.484 199.219 146.398 198.844 146.395C198.09 146.383 197.562 146.637 197.262 147.156H196.242L196.84 142.516H201.434V143.453H197.719L197.402 145.938H197.484C197.676 145.789 197.908 145.67 198.182 145.58C198.455 145.49 198.738 145.445 199.031 145.445C199.562 145.445 200.041 145.568 200.467 145.814C200.896 146.057 201.232 146.395 201.475 146.828C201.721 147.262 201.844 147.75 201.844 148.293C201.844 148.832 201.717 149.316 201.463 149.746C201.209 150.176 200.859 150.512 200.414 150.754C199.969 150.996 199.469 151.117 198.914 151.117ZM212.023 147.684H211.098V147.109H208.988V146.5H211.098V141.543H212.023V147.684ZM204.184 145.469C206.617 145.469 208.637 145.383 210.242 145.211L210.301 145.809C209.379 145.941 208.34 146.037 207.184 146.096V147.719H206.281V146.131C205.434 146.15 204.703 146.16 204.09 146.16H203.504L203.398 145.469H204.184ZM212.023 150.215H205.941V151.152H212.363V151.832H205.039V149.57H211.109V148.727H204.992V148.059H212.023V150.215ZM206.797 141.742C207.309 141.742 207.76 141.807 208.15 141.936C208.541 142.064 208.844 142.248 209.059 142.486C209.273 142.721 209.383 142.996 209.387 143.312C209.383 143.633 209.273 143.91 209.059 144.145C208.844 144.379 208.541 144.559 208.15 144.684C207.764 144.809 207.312 144.871 206.797 144.871C206.273 144.871 205.816 144.809 205.426 144.684C205.039 144.559 204.738 144.379 204.523 144.145C204.312 143.91 204.207 143.633 204.207 143.312C204.207 142.996 204.312 142.721 204.523 142.486C204.738 142.248 205.041 142.064 205.432 141.936C205.822 141.807 206.277 141.742 206.797 141.742ZM206.797 142.387C206.449 142.387 206.145 142.426 205.883 142.504C205.621 142.578 205.42 142.686 205.279 142.826C205.139 142.963 205.07 143.125 205.074 143.312C205.07 143.496 205.139 143.658 205.279 143.799C205.42 143.936 205.621 144.043 205.883 144.121C206.145 144.199 206.449 144.238 206.797 144.238C207.141 144.238 207.441 144.199 207.699 144.121C207.961 144.043 208.162 143.936 208.303 143.799C208.447 143.658 208.52 143.496 208.52 143.312C208.52 143.125 208.447 142.963 208.303 142.826C208.162 142.686 207.961 142.578 207.699 142.504C207.441 142.426 207.141 142.387 206.797 142.387ZM220.957 151.117C220.453 151.117 219.994 151.021 219.58 150.83C219.17 150.635 218.842 150.367 218.596 150.027C218.354 149.684 218.223 149.297 218.203 148.867H219.223C219.25 149.117 219.344 149.344 219.504 149.547C219.664 149.746 219.871 149.904 220.125 150.021C220.379 150.135 220.656 150.191 220.957 150.191C221.316 150.191 221.641 150.109 221.93 149.945C222.219 149.781 222.445 149.557 222.609 149.271C222.773 148.986 222.855 148.668 222.855 148.316C222.855 147.953 222.77 147.627 222.598 147.338C222.43 147.045 222.195 146.816 221.895 146.652C221.598 146.484 221.262 146.398 220.887 146.395C220.133 146.383 219.605 146.637 219.305 147.156H218.285L218.883 142.516H223.477V143.453H219.762L219.445 145.938H219.527C219.719 145.789 219.951 145.67 220.225 145.58C220.498 145.49 220.781 145.445 221.074 145.445C221.605 145.445 222.084 145.568 222.51 145.814C222.939 146.057 223.275 146.395 223.518 146.828C223.764 147.262 223.887 147.75 223.887 148.293C223.887 148.832 223.76 149.316 223.506 149.746C223.252 150.176 222.902 150.512 222.457 150.754C222.012 150.996 221.512 151.117 220.957 151.117ZM228.43 141.918C228.945 141.922 229.406 142.021 229.812 142.217C230.223 142.412 230.543 142.686 230.773 143.037C231.008 143.385 231.125 143.781 231.125 144.227C231.125 144.672 231.008 145.07 230.773 145.422C230.543 145.77 230.223 146.041 229.812 146.236C229.406 146.428 228.945 146.523 228.43 146.523C227.906 146.523 227.439 146.428 227.029 146.236C226.619 146.041 226.299 145.77 226.068 145.422C225.838 145.07 225.723 144.672 225.723 144.227C225.723 143.781 225.838 143.385 226.068 143.037C226.299 142.686 226.619 142.412 227.029 142.217C227.439 142.021 227.906 141.922 228.43 141.918ZM228.43 142.691C228.086 142.691 227.775 142.758 227.498 142.891C227.225 143.02 227.01 143.201 226.854 143.436C226.697 143.666 226.621 143.93 226.625 144.227C226.621 144.527 226.697 144.795 226.854 145.029C227.01 145.264 227.225 145.447 227.498 145.58C227.775 145.709 228.086 145.773 228.43 145.773C228.77 145.773 229.076 145.709 229.35 145.58C229.627 145.447 229.844 145.264 230 145.029C230.156 144.795 230.234 144.527 230.234 144.227C230.234 143.93 230.156 143.666 230 143.436C229.844 143.201 229.627 143.02 229.35 142.891C229.076 142.758 228.77 142.691 228.43 142.691ZM234.078 146.887H233.164V141.531H234.078V146.887ZM234.078 149.898H228.23V151.07H234.453V151.809H227.328V149.207H233.164V148.129H227.305V147.391H234.078V149.898Z" fill="#0076FE"/>
<path d="M354.25 83.75L336.75 101.25M336.75 83.75L354.25 101.25" stroke="#1E1E1E" stroke-width="2" stroke-linecap="round" stroke-linejoin="round"/>
<path d="M61.752 681.816C62.8535 681.822 63.8379 681.995 64.7051 682.335C65.5723 682.675 66.249 683.155 66.7354 683.776C67.2217 684.392 67.4648 685.104 67.4648 685.912C67.4648 686.674 67.251 687.351 66.8232 687.942C66.4014 688.534 65.8096 689.006 65.0479 689.357C64.2861 689.709 63.4102 689.917 62.4199 689.981V693.26H68.9414V694.42H54.6328V693.26H61.0664V689.981C60.082 689.917 59.209 689.709 58.4473 689.357C57.6855 689 57.0938 688.528 56.6719 687.942C56.25 687.351 56.0391 686.674 56.0391 685.912C56.0391 685.104 56.2822 684.392 56.7686 683.776C57.2549 683.155 57.9316 682.675 58.7988 682.335C59.666 681.995 60.6504 681.822 61.752 681.816ZM61.752 682.959C60.9141 682.959 60.1611 683.085 59.4932 683.337C58.8311 683.583 58.3125 683.932 57.9375 684.383C57.5625 684.828 57.375 685.338 57.375 685.912C57.375 686.504 57.5625 687.025 57.9375 687.477C58.3125 687.928 58.8311 688.276 59.4932 688.522C60.1553 688.769 60.9082 688.895 61.752 688.9C62.5957 688.895 63.3486 688.769 64.0107 688.522C64.6729 688.276 65.1914 687.928 65.5664 687.477C65.9414 687.025 66.1289 686.504 66.1289 685.912C66.1289 685.338 65.9414 684.828 65.5664 684.383C65.1914 683.932 64.6699 683.583 64.002 683.337C63.3398 683.085 62.5898 682.959 61.752 682.959ZM82.793 685.701H72.123V681.061H73.4766V684.559H82.793V685.701ZM84.4805 688.373H70.1719V687.248H84.4805V688.373ZM82.6348 693.436H73.3887V695.105H83.1973V696.213H72V692.381H81.2812V690.869H71.9648V689.779H82.6348V693.436ZM97.8398 687.248H100.459V688.391H97.8398V696.424H96.4688V680.797H97.8398V687.248ZM94.957 684.453H85.6582V683.311H89.6836V680.99H91.0547V683.311H94.957V684.453ZM90.3867 685.754C91.1191 685.754 91.7754 685.906 92.3555 686.211C92.9355 686.516 93.3896 686.94 93.7178 687.485C94.0459 688.03 94.2129 688.648 94.2188 689.34C94.2129 690.031 94.0459 690.649 93.7178 691.194C93.3896 691.739 92.9355 692.164 92.3555 692.469C91.7754 692.773 91.1191 692.926 90.3867 692.926C89.6484 692.926 88.9863 692.773 88.4004 692.469C87.8203 692.164 87.3662 691.739 87.0381 691.194C86.71 690.649 86.5488 690.031 86.5547 689.34C86.5488 688.648 86.71 688.03 87.0381 687.485C87.3662 686.94 87.8203 686.516 88.4004 686.211C88.9863 685.906 89.6484 685.754 90.3867 685.754ZM90.3867 686.914C89.9062 686.914 89.4727 687.02 89.0859 687.23C88.7051 687.436 88.4062 687.723 88.1895 688.092C87.9727 688.461 87.8672 688.877 87.873 689.34C87.8672 689.809 87.9727 690.228 88.1895 690.597C88.4062 690.96 88.7051 691.244 89.0859 691.449C89.4727 691.654 89.9062 691.754 90.3867 691.748C90.8613 691.754 91.2891 691.654 91.6699 691.449C92.0508 691.244 92.3496 690.96 92.5664 690.597C92.7832 690.228 92.8945 689.809 92.9004 689.34C92.8945 688.877 92.7832 688.461 92.5664 688.092C92.3496 687.723 92.0508 687.436 91.6699 687.23C91.2891 687.02 90.8613 686.914 90.3867 686.914ZM109.213 683.557H112.869V680.814H114.258V692.223H112.869V688.057H109.213V689.463H102.041V682.168H109.213V683.557ZM103.412 688.355H107.859V683.311H103.412V688.355ZM114.609 696.09H104.15V691.203H105.539V694.93H114.609V696.09ZM112.869 686.914V684.717H109.213V686.914H112.869ZM129.164 687.301H135.668V688.443H121.359V687.301H127.811V685.455H129.164V687.301ZM134.35 682.379H129.401C129.442 682.895 129.721 683.366 130.236 683.794C130.758 684.222 131.429 684.573 132.249 684.849C133.069 685.118 133.939 685.291 134.859 685.367L134.402 686.404C133.518 686.322 132.677 686.155 131.88 685.903C131.089 685.651 130.397 685.323 129.806 684.919C129.214 684.509 128.78 684.037 128.505 683.504C128.229 684.037 127.796 684.509 127.204 684.919C126.612 685.323 125.918 685.651 125.121 685.903C124.324 686.155 123.48 686.322 122.59 686.404L122.133 685.367C123.047 685.291 123.914 685.118 124.734 684.849C125.555 684.573 126.223 684.222 126.738 683.794C127.26 683.366 127.544 682.895 127.591 682.379H122.678V681.289H134.35V682.379ZM134.314 691.607H122.713V690.518H127.811V689.041H129.182V690.518H134.314V691.607ZM128.496 692.381C130.014 692.381 131.18 692.557 131.994 692.908C132.814 693.254 133.225 693.764 133.225 694.438C133.225 695.117 132.814 695.633 131.994 695.984C131.18 696.336 130.014 696.512 128.496 696.512C126.967 696.512 125.798 696.336 124.989 695.984C124.187 695.633 123.785 695.117 123.785 694.438C123.785 693.764 124.187 693.254 124.989 692.908C125.798 692.557 126.967 692.381 128.496 692.381ZM128.496 693.348C127.424 693.359 126.601 693.456 126.026 693.638C125.458 693.813 125.174 694.08 125.174 694.438C125.174 694.795 125.464 695.07 126.044 695.264C126.624 695.463 127.441 695.557 128.496 695.545C129.557 695.551 130.371 695.457 130.939 695.264C131.514 695.076 131.807 694.801 131.818 694.438C131.812 694.08 131.525 693.813 130.957 693.638C130.395 693.456 129.574 693.359 128.496 693.348ZM151.172 690.166H136.934V689.041H151.172V690.166ZM149.59 696.09H138.779V691.537H140.168V694.93H149.59V696.09ZM144.053 681.359C145.166 681.354 146.139 681.474 146.971 681.72C147.803 681.966 148.444 682.323 148.896 682.792C149.347 683.255 149.572 683.809 149.572 684.453C149.572 685.098 149.347 685.654 148.896 686.123C148.444 686.586 147.803 686.943 146.971 687.195C146.139 687.441 145.166 687.564 144.053 687.564C142.928 687.564 141.949 687.441 141.117 687.195C140.285 686.943 139.644 686.586 139.192 686.123C138.741 685.654 138.516 685.098 138.516 684.453C138.516 683.809 138.741 683.255 139.192 682.792C139.644 682.323 140.285 681.966 141.117 681.72C141.949 681.474 142.928 681.354 144.053 681.359ZM144.053 682.467C143.221 682.467 142.494 682.549 141.873 682.713C141.252 682.871 140.771 683.1 140.432 683.398C140.098 683.697 139.934 684.049 139.939 684.453C139.934 684.857 140.098 685.209 140.432 685.508C140.771 685.807 141.252 686.038 141.873 686.202C142.494 686.36 143.221 686.439 144.053 686.439C144.879 686.439 145.603 686.36 146.224 686.202C146.845 686.038 147.322 685.807 147.656 685.508C147.996 685.209 148.166 684.857 148.166 684.453C148.166 684.049 147.996 683.697 147.656 683.398C147.322 683.1 146.845 682.871 146.224 682.713C145.603 682.549 144.879 682.467 144.053 682.467ZM169.893 696.459H168.504V680.797H169.893V696.459ZM159.293 686.264H163.951V682.133H165.305V692.68H157.922V682.133H159.293V686.264ZM163.951 691.52V687.371H159.293V691.52H163.951ZM185.115 684.119C185.115 685.01 185.106 685.769 185.089 686.396C185.071 687.022 185.021 687.729 184.939 688.514C184.857 689.299 184.729 690.143 184.553 691.045L183.199 690.887C183.375 690.031 183.504 689.22 183.586 688.452C183.668 687.679 183.718 686.981 183.735 686.36C183.753 685.739 183.762 684.992 183.762 684.119V683.521H174.059V682.379H185.115V684.119ZM186.803 694.209H172.564V693.066H176.098V687.916H177.469V693.066H180V687.916H181.354V693.066H186.803V694.209ZM196.787 683.346V683.592C196.775 684.523 196.74 685.452 196.682 686.378C196.623 687.298 196.506 688.355 196.33 689.551L194.941 689.428C195.129 688.268 195.252 687.23 195.311 686.316C195.369 685.396 195.398 684.512 195.398 683.662H188.842V682.537H196.787V683.346ZM192.691 691.748C194.619 691.678 196.33 691.555 197.824 691.379L197.895 692.416C196.529 692.633 195.091 692.782 193.579 692.864C192.067 692.94 190.5 692.979 188.877 692.979H188.139L187.963 691.836C189.457 691.824 190.582 691.81 191.338 691.792V687.002H192.691V691.748ZM200.18 687.336H202.711V688.531H200.18V696.424H198.809V680.797H200.18V687.336ZM220.395 684.805H222.732V685.982H220.395V690.025H219.006V680.797H220.395V684.805ZM220.395 693.875H211.623V695.264H220.992V696.248H210.252V692.943H219.023V691.713H210.217V690.729H220.395V693.875ZM208.125 688.619C209.93 688.619 211.342 688.604 212.361 688.575V687.608C211.436 687.538 210.706 687.324 210.173 686.967C209.64 686.609 209.373 686.135 209.373 685.543C209.373 685.121 209.522 684.758 209.821 684.453C210.12 684.148 210.545 683.917 211.096 683.759C211.646 683.601 212.291 683.521 213.029 683.521C213.773 683.521 214.421 683.601 214.972 683.759C215.522 683.917 215.947 684.148 216.246 684.453C216.545 684.758 216.697 685.121 216.703 685.543C216.697 686.129 216.431 686.601 215.903 686.958C215.382 687.315 214.658 687.532 213.732 687.608V688.531C215.402 688.449 216.838 688.32 218.039 688.145L218.162 689.076C216.668 689.316 215.115 689.475 213.504 689.551C211.893 689.621 210.152 689.656 208.283 689.656L208.125 688.619ZM217.564 682.994H208.512V681.992H212.361V680.656H213.732V681.992H217.564V682.994ZM213.029 684.436C212.303 684.447 211.731 684.55 211.315 684.743C210.899 684.937 210.691 685.203 210.691 685.543C210.691 685.895 210.902 686.176 211.324 686.387C211.746 686.598 212.314 686.703 213.029 686.703C213.75 686.703 214.321 686.598 214.743 686.387C215.171 686.176 215.385 685.895 215.385 685.543C215.385 685.203 215.174 684.937 214.752 684.743C214.33 684.55 213.756 684.447 213.029 684.436ZM238.008 689.639H223.752V688.531H230.203V686.703H225.562V681.535H236.232V682.643H226.916V685.578H236.338V686.703H231.539V688.531H238.008V689.639ZM230.871 690.781C231.984 690.781 232.942 690.893 233.745 691.115C234.554 691.332 235.172 691.651 235.6 692.073C236.027 692.495 236.244 693.002 236.25 693.594C236.244 694.191 236.027 694.701 235.6 695.123C235.172 695.545 234.557 695.864 233.754 696.081C232.951 696.304 231.99 696.418 230.871 696.424C229.746 696.418 228.779 696.304 227.971 696.081C227.162 695.864 226.544 695.545 226.116 695.123C225.688 694.701 225.475 694.191 225.475 693.594C225.475 693.002 225.688 692.495 226.116 692.073C226.544 691.651 227.162 691.332 227.971 691.115C228.779 690.893 229.746 690.781 230.871 690.781ZM230.871 691.871C230.039 691.871 229.321 691.941 228.718 692.082C228.12 692.217 227.663 692.413 227.347 692.671C227.03 692.929 226.875 693.236 226.881 693.594C226.875 693.957 227.03 694.268 227.347 694.525C227.663 694.783 228.12 694.979 228.718 695.114C229.321 695.249 230.039 695.316 230.871 695.316C231.697 695.316 232.409 695.249 233.007 695.114C233.604 694.979 234.062 694.783 234.378 694.525C234.7 694.262 234.861 693.951 234.861 693.594C234.861 693.236 234.7 692.929 234.378 692.671C234.062 692.413 233.602 692.217 232.998 692.082C232.4 691.941 231.691 691.871 230.871 691.871ZM253.547 690.166H239.309V689.041H253.547V690.166ZM251.965 696.09H241.154V691.537H242.543V694.93H251.965V696.09ZM246.428 681.359C247.541 681.354 248.514 681.474 249.346 681.72C250.178 681.966 250.819 682.323 251.271 682.792C251.722 683.255 251.947 683.809 251.947 684.453C251.947 685.098 251.722 685.654 251.271 686.123C250.819 686.586 250.178 686.943 249.346 687.195C248.514 687.441 247.541 687.564 246.428 687.564C245.303 687.564 244.324 687.441 243.492 687.195C242.66 686.943 242.019 686.586 241.567 686.123C241.116 685.654 240.891 685.098 240.891 684.453C240.891 683.809 241.116 683.255 241.567 682.792C242.019 682.323 242.66 681.966 243.492 681.72C244.324 681.474 245.303 681.354 246.428 681.359ZM246.428 682.467C245.596 682.467 244.869 682.549 244.248 682.713C243.627 682.871 243.146 683.1 242.807 683.398C242.473 683.697 242.309 684.049 242.314 684.453C242.309 684.857 242.473 685.209 242.807 685.508C243.146 685.807 243.627 686.038 244.248 686.202C244.869 686.36 245.596 686.439 246.428 686.439C247.254 686.439 247.978 686.36 248.599 686.202C249.22 686.038 249.697 685.807 250.031 685.508C250.371 685.209 250.541 684.857 250.541 684.453C250.541 684.049 250.371 683.697 250.031 683.398C249.697 683.1 249.22 682.871 248.599 682.713C247.978 682.549 247.254 682.467 246.428 682.467ZM257.361 691.326C257.367 690.57 257.443 689.958 257.59 689.489C257.742 689.021 257.953 688.643 258.223 688.355C258.492 688.068 258.855 687.787 259.312 687.512C259.699 687.277 260.01 686.981 260.244 686.624C260.479 686.261 260.596 685.848 260.596 685.385C260.596 684.998 260.502 684.658 260.314 684.365C260.133 684.066 259.881 683.838 259.559 683.68C259.242 683.516 258.891 683.434 258.504 683.434C258.152 683.434 257.821 683.507 257.511 683.653C257.206 683.794 256.951 684.02 256.746 684.33C256.547 684.635 256.43 685.016 256.395 685.473H254.795C254.824 684.781 255.006 684.181 255.34 683.671C255.674 683.161 256.116 682.771 256.667 682.502C257.218 682.232 257.83 682.098 258.504 682.098C259.225 682.098 259.86 682.244 260.411 682.537C260.962 682.824 261.387 683.223 261.686 683.732C261.99 684.242 262.143 684.816 262.143 685.455C262.143 686.75 261.562 687.752 260.402 688.461C260.027 688.689 259.731 688.927 259.515 689.173C259.304 689.419 259.146 689.712 259.04 690.052C258.94 690.392 258.885 690.816 258.873 691.326V691.414H257.361V691.326ZM258.17 695.105C257.965 695.105 257.774 695.056 257.599 694.956C257.429 694.851 257.291 694.71 257.186 694.534C257.086 694.358 257.039 694.168 257.045 693.963C257.039 693.764 257.086 693.579 257.186 693.409C257.291 693.233 257.429 693.096 257.599 692.996C257.774 692.891 257.965 692.838 258.17 692.838C258.369 692.838 258.554 692.891 258.724 692.996C258.899 693.096 259.037 693.233 259.137 693.409C259.242 693.579 259.295 693.764 259.295 693.963C259.295 694.168 259.242 694.358 259.137 694.534C259.037 694.71 258.899 694.851 258.724 694.956C258.554 695.056 258.369 695.105 258.17 695.105Z" fill="#0076FE"/>
<rect x="41.5" y="577.5" width="318" height="45" rx="12.5" fill="#FCFFFF" stroke="#0076FE"/>
<path d="M100.887 605.107H99.8477V592.953H100.887V605.107ZM98.4668 604.492H97.4414V600.5H95.5C95.2858 601.111 94.9827 601.585 94.5908 601.922C94.1989 602.259 93.7454 602.428 93.2305 602.428C92.7064 602.428 92.2461 602.257 91.8496 601.915C91.4577 601.569 91.1546 601.076 90.9404 600.438C90.7262 599.8 90.6191 599.055 90.6191 598.203C90.6191 597.351 90.7262 596.606 90.9404 595.968C91.1546 595.33 91.4577 594.84 91.8496 594.498C92.2461 594.152 92.7064 593.979 93.2305 593.979C93.7454 593.979 94.1989 594.147 94.5908 594.484C94.9827 594.822 95.2858 595.296 95.5 595.906H97.4414V593.213H98.4668V604.492ZM93.2305 594.99C92.9023 594.99 92.6152 595.12 92.3691 595.38C92.1276 595.64 91.9408 596.011 91.8086 596.494C91.681 596.977 91.6172 597.547 91.6172 598.203C91.6172 598.855 91.681 599.422 91.8086 599.905C91.9408 600.388 92.1276 600.76 92.3691 601.02C92.6152 601.279 92.9023 601.407 93.2305 601.402C93.554 601.407 93.8389 601.279 94.085 601.02C94.3311 600.76 94.5202 600.388 94.6523 599.905C94.7891 599.422 94.8574 598.855 94.8574 598.203C94.8574 597.551 94.7891 596.984 94.6523 596.501C94.5202 596.013 94.3311 595.64 94.085 595.38C93.8434 595.12 93.5586 594.99 93.2305 594.99ZM95.7324 596.795C95.8145 597.223 95.8555 597.693 95.8555 598.203C95.8555 598.695 95.8167 599.16 95.7393 599.598H97.4414V596.795H95.7324ZM106.104 600.227C106.099 601.498 105.93 602.676 105.598 603.761C105.265 604.845 104.777 605.855 104.135 606.789H103.096C103.41 606.333 103.704 605.743 103.978 605.019C104.251 604.294 104.47 603.51 104.634 602.667C104.802 601.824 104.887 601.01 104.887 600.227C104.887 599.443 104.802 598.632 104.634 597.793C104.47 596.954 104.251 596.173 103.978 595.448C103.704 594.724 103.41 594.133 103.096 593.678H104.135C105.434 595.555 106.09 597.738 106.104 600.227ZM117.891 593.746C118.747 593.751 119.513 593.885 120.188 594.149C120.862 594.414 121.388 594.787 121.767 595.271C122.145 595.749 122.334 596.303 122.334 596.932C122.334 597.524 122.168 598.05 121.835 598.511C121.507 598.971 121.047 599.338 120.454 599.611C119.862 599.885 119.18 600.047 118.41 600.097V602.646H123.482V603.549H112.354V602.646H117.357V600.097C116.592 600.047 115.913 599.885 115.32 599.611C114.728 599.333 114.268 598.966 113.939 598.511C113.611 598.05 113.447 597.524 113.447 596.932C113.447 596.303 113.636 595.749 114.015 595.271C114.393 594.787 114.919 594.414 115.594 594.149C116.268 593.885 117.034 593.751 117.891 593.746ZM117.891 594.635C117.239 594.635 116.653 594.733 116.134 594.929C115.619 595.12 115.215 595.391 114.924 595.742C114.632 596.089 114.486 596.485 114.486 596.932C114.486 597.392 114.632 597.798 114.924 598.148C115.215 598.499 115.619 598.771 116.134 598.962C116.649 599.153 117.234 599.251 117.891 599.256C118.547 599.251 119.132 599.153 119.647 598.962C120.162 598.771 120.566 598.499 120.857 598.148C121.149 597.798 121.295 597.392 121.295 596.932C121.295 596.485 121.149 596.089 120.857 595.742C120.566 595.391 120.16 595.12 119.641 594.929C119.126 594.733 118.542 594.635 117.891 594.635ZM134.756 596.768H126.457V593.158H127.51V595.879H134.756V596.768ZM136.068 598.846H124.939V597.971H136.068V598.846ZM134.633 602.783H127.441V604.082H135.07V604.943H126.361V601.963H133.58V600.787H126.334V599.939H134.633V602.783ZM147.678 602.018H142.072V594.184H147.678V602.018ZM143.111 601.143H146.611V595.045H143.111V601.143ZM150.973 597.807H153.01V598.736H150.973V605.107H149.906V592.953H150.973V597.807ZM163.668 595.934H165.5V596.822H163.668V599.857H162.602V592.953H163.668V595.934ZM160.346 593.746C160.341 594.758 160.111 595.674 159.655 596.494C159.2 597.314 158.541 598.019 157.68 598.606C156.823 599.194 155.793 599.652 154.59 599.98L154.152 599.119C155.146 598.85 156.007 598.497 156.736 598.06C157.465 597.618 158.037 597.107 158.452 596.528C158.871 595.95 159.118 595.318 159.19 594.635H154.699V593.746H160.346ZM163.668 604.943H155.971V600.418H163.668V604.943ZM157.037 604.068H162.602V601.307H157.037V604.068ZM176.801 601.854H175.734V592.967H176.801V601.854ZM177.184 604.848H168.953V600.951H170.02V603.945H177.184V604.848ZM170.238 593.814C170.84 593.814 171.382 593.942 171.865 594.197C172.353 594.448 172.733 594.801 173.007 595.257C173.285 595.708 173.424 596.221 173.424 596.795C173.424 597.378 173.285 597.898 173.007 598.354C172.733 598.805 172.353 599.158 171.865 599.413C171.382 599.664 170.84 599.789 170.238 599.789C169.637 599.789 169.092 599.664 168.604 599.413C168.121 599.158 167.741 598.805 167.463 598.354C167.189 597.898 167.053 597.378 167.053 596.795C167.053 596.221 167.189 595.708 167.463 595.257C167.741 594.801 168.121 594.448 168.604 594.197C169.092 593.942 169.637 593.814 170.238 593.814ZM170.238 594.758C169.833 594.758 169.466 594.844 169.138 595.018C168.814 595.191 168.559 595.432 168.372 595.742C168.19 596.052 168.101 596.403 168.105 596.795C168.101 597.191 168.19 597.547 168.372 597.861C168.559 598.171 168.814 598.413 169.138 598.586C169.466 598.759 169.833 598.846 170.238 598.846C170.635 598.846 170.995 598.759 171.318 598.586C171.646 598.413 171.904 598.171 172.091 597.861C172.278 597.547 172.371 597.191 172.371 596.795C172.371 596.408 172.278 596.059 172.091 595.749C171.904 595.439 171.646 595.198 171.318 595.024C170.995 594.847 170.635 594.758 170.238 594.758ZM192.867 596.07H194.686V596.986H192.867V600.131H191.787V592.953H192.867V596.07ZM192.867 603.125H186.045V604.205H193.332V604.971H184.979V602.4H191.801V601.443H184.951V600.678H192.867V603.125ZM183.324 599.037C184.728 599.037 185.826 599.026 186.619 599.003V598.251C185.899 598.196 185.332 598.03 184.917 597.752C184.502 597.474 184.295 597.105 184.295 596.645C184.295 596.316 184.411 596.034 184.644 595.797C184.876 595.56 185.206 595.38 185.635 595.257C186.063 595.134 186.564 595.072 187.139 595.072C187.717 595.072 188.221 595.134 188.649 595.257C189.078 595.38 189.408 595.56 189.641 595.797C189.873 596.034 189.992 596.316 189.996 596.645C189.992 597.1 189.784 597.467 189.374 597.745C188.968 598.023 188.406 598.192 187.686 598.251V598.969C188.984 598.905 190.101 598.805 191.035 598.668L191.131 599.393C189.969 599.579 188.761 599.702 187.508 599.762C186.255 599.816 184.901 599.844 183.447 599.844L183.324 599.037ZM190.666 594.662H183.625V593.883H186.619V592.844H187.686V593.883H190.666V594.662ZM187.139 595.783C186.574 595.792 186.129 595.872 185.806 596.022C185.482 596.173 185.32 596.38 185.32 596.645C185.32 596.918 185.484 597.137 185.812 597.301C186.141 597.465 186.583 597.547 187.139 597.547C187.699 597.547 188.144 597.465 188.472 597.301C188.804 597.137 188.971 596.918 188.971 596.645C188.971 596.38 188.807 596.173 188.479 596.022C188.15 595.872 187.704 595.792 187.139 595.783ZM207.066 599.83H195.979V598.969H200.996V597.547H197.387V593.527H205.686V594.389H198.439V596.672H205.768V597.547H202.035V598.969H207.066V599.83ZM201.516 600.719C202.382 600.719 203.127 600.805 203.751 600.979C204.38 601.147 204.861 601.396 205.193 601.724C205.526 602.052 205.695 602.446 205.699 602.906C205.695 603.371 205.526 603.768 205.193 604.096C204.861 604.424 204.382 604.672 203.758 604.841C203.133 605.014 202.386 605.103 201.516 605.107C200.641 605.103 199.889 605.014 199.26 604.841C198.631 604.672 198.15 604.424 197.817 604.096C197.485 603.768 197.318 603.371 197.318 602.906C197.318 602.446 197.485 602.052 197.817 601.724C198.15 601.396 198.631 601.147 199.26 600.979C199.889 600.805 200.641 600.719 201.516 600.719ZM201.516 601.566C200.868 601.566 200.31 601.621 199.841 601.73C199.376 601.835 199.021 601.988 198.774 602.188C198.528 602.389 198.408 602.628 198.412 602.906C198.408 603.189 198.528 603.43 198.774 603.631C199.021 603.831 199.376 603.984 199.841 604.089C200.31 604.194 200.868 604.246 201.516 604.246C202.158 604.246 202.712 604.194 203.177 604.089C203.642 603.984 203.997 603.831 204.243 603.631C204.494 603.426 204.619 603.184 204.619 602.906C204.619 602.628 204.494 602.389 204.243 602.188C203.997 601.988 203.639 601.835 203.17 601.73C202.705 601.621 202.154 601.566 201.516 601.566ZM219.666 598.928H208.578V598.066H219.666V598.928ZM218.34 597.068H210.055V593.377H218.217V594.238H211.135V596.193H218.34V597.068ZM218.23 602.838H211.012V604.096H218.6V604.971H209.945V602.031H217.178V600.855H209.918V600.021H218.23V602.838ZM232.252 600.24H221.178V599.365H232.252V600.24ZM231.021 604.848H222.613V601.307H223.693V603.945H231.021V604.848ZM226.715 593.391C227.581 593.386 228.337 593.479 228.984 593.671C229.632 593.862 230.131 594.14 230.481 594.505C230.832 594.865 231.008 595.296 231.008 595.797C231.008 596.298 230.832 596.731 230.481 597.096C230.131 597.456 229.632 597.734 228.984 597.93C228.337 598.121 227.581 598.217 226.715 598.217C225.84 598.217 225.079 598.121 224.432 597.93C223.785 597.734 223.285 597.456 222.935 597.096C222.584 596.731 222.408 596.298 222.408 595.797C222.408 595.296 222.584 594.865 222.935 594.505C223.285 594.14 223.785 593.862 224.432 593.671C225.079 593.479 225.84 593.386 226.715 593.391ZM226.715 594.252C226.068 594.252 225.503 594.316 225.02 594.443C224.536 594.566 224.163 594.744 223.898 594.977C223.639 595.209 223.511 595.482 223.516 595.797C223.511 596.111 223.639 596.385 223.898 596.617C224.163 596.85 224.536 597.03 225.02 597.157C225.503 597.28 226.068 597.342 226.715 597.342C227.357 597.342 227.92 597.28 228.403 597.157C228.886 597.03 229.258 596.85 229.518 596.617C229.782 596.385 229.914 596.111 229.914 595.797C229.914 595.482 229.782 595.209 229.518 594.977C229.258 594.744 228.886 594.566 228.403 594.443C227.92 594.316 227.357 594.252 226.715 594.252ZM247.854 605.121H246.76V602.127H243.957V601.279H246.76V592.967H247.854V605.121ZM237.736 599.406C239.377 599.397 240.84 599.374 242.125 599.338C243.41 599.297 244.641 599.215 245.816 599.092L245.885 599.898C244.764 600.044 243.542 600.151 242.221 600.22V604.738H241.141V600.268C240.12 600.304 239.035 600.322 237.887 600.322L237.736 599.406ZM244.75 598.012H238.816V593.65H244.75V598.012ZM239.869 597.123H243.697V594.525H239.869V597.123ZM259.797 597.902H261.766V598.805H259.797V605.107H258.73V592.953H259.797V597.902ZM256.652 594.266C256.652 596.075 256.199 597.715 255.292 599.188C254.385 600.655 252.979 601.858 251.074 602.797L250.473 601.949C252.036 601.17 253.246 600.208 254.103 599.064C254.959 597.916 255.449 596.617 255.572 595.168H251.033V594.266H256.652ZM271.119 601.115C271.119 601.676 271.267 602.216 271.563 602.735C271.864 603.255 272.293 603.672 272.849 603.986C273.218 603.754 273.537 603.476 273.806 603.152C274.075 602.824 274.277 602.485 274.414 602.134C274.551 601.778 274.619 601.439 274.619 601.115V600.445H275.672V601.115C275.672 601.535 275.77 601.945 275.966 602.346C276.166 602.742 276.453 603.1 276.827 603.419C277.201 603.733 277.641 603.977 278.146 604.15L277.613 604.943C277.016 604.734 276.506 604.428 276.082 604.027C275.658 603.626 275.339 603.166 275.125 602.646C274.924 603.166 274.635 603.638 274.257 604.062C273.879 604.485 273.421 604.811 272.883 605.039C272.313 604.82 271.835 604.504 271.447 604.089C271.064 603.679 270.777 603.207 270.586 602.674C270.363 603.18 270.044 603.631 269.629 604.027C269.214 604.424 268.722 604.729 268.152 604.943L267.605 604.15C268.102 603.964 268.535 603.708 268.904 603.385C269.278 603.057 269.565 602.694 269.766 602.298C269.971 601.901 270.076 601.507 270.08 601.115V600.445H271.119V601.115ZM277.039 599.912H275.973V592.967H277.039V599.912ZM270.477 593.678C271.087 593.678 271.634 593.799 272.117 594.04C272.6 594.277 272.979 594.612 273.252 595.045C273.525 595.473 273.662 595.965 273.662 596.521C273.662 597.068 273.525 597.556 273.252 597.984C272.979 598.413 272.6 598.745 272.117 598.982C271.634 599.219 271.087 599.338 270.477 599.338C269.866 599.338 269.319 599.219 268.836 598.982C268.353 598.745 267.975 598.413 267.701 597.984C267.428 597.556 267.291 597.068 267.291 596.521C267.291 595.965 267.428 595.473 267.701 595.045C267.975 594.612 268.353 594.277 268.836 594.04C269.319 593.799 269.866 593.678 270.477 593.678ZM270.477 594.594C270.066 594.589 269.697 594.669 269.369 594.833C269.046 594.997 268.793 595.227 268.61 595.523C268.428 595.815 268.339 596.148 268.344 596.521C268.339 596.891 268.428 597.221 268.61 597.513C268.793 597.804 269.046 598.032 269.369 598.196C269.697 598.36 270.066 598.445 270.477 598.449C270.882 598.445 271.247 598.36 271.57 598.196C271.894 598.032 272.147 597.804 272.329 597.513C272.516 597.221 272.609 596.891 272.609 596.521C272.609 596.148 272.516 595.815 272.329 595.523C272.147 595.227 271.894 594.997 271.57 594.833C271.247 594.669 270.882 594.589 270.477 594.594ZM285.141 593.172C286.043 593.172 286.815 593.254 287.458 593.418C288.101 593.577 288.59 593.814 288.928 594.129C289.265 594.439 289.434 594.817 289.434 595.264C289.434 595.947 289.06 596.471 288.312 596.836C287.565 597.201 286.508 597.387 285.141 597.396C284.238 597.392 283.464 597.308 282.816 597.144C282.174 596.979 281.682 596.74 281.34 596.426C281.003 596.107 280.834 595.719 280.834 595.264C280.834 594.817 281.003 594.439 281.34 594.129C281.682 593.814 282.174 593.577 282.816 593.418C283.464 593.254 284.238 593.172 285.141 593.172ZM285.141 593.979C284.471 593.979 283.896 594.031 283.418 594.136C282.939 594.236 282.575 594.384 282.324 594.58C282.074 594.771 281.951 594.999 281.955 595.264C281.951 595.683 282.226 596.007 282.782 596.234C283.338 596.462 284.124 596.576 285.141 596.576C286.152 596.576 286.938 596.462 287.499 596.234C288.06 596.007 288.34 595.683 288.34 595.264C288.34 594.999 288.212 594.771 287.957 594.58C287.702 594.389 287.335 594.241 286.856 594.136C286.378 594.031 285.806 593.979 285.141 593.979ZM290.678 599.092H279.604V598.217H290.678V599.092ZM289.256 602.865H282.037V604.123H289.625V604.971H280.971V602.072H288.203V600.965H280.943V600.145H289.256V602.865ZM301.828 597.971H303.674V598.873H301.828V605.107H300.748V592.953H301.828V597.971ZM295.895 594.279C295.885 595.865 295.662 597.335 295.225 598.688C294.792 600.037 294.058 601.261 293.023 602.359L292.162 601.744C293.042 600.846 293.696 599.851 294.124 598.757C294.552 597.659 294.803 596.467 294.876 595.182H292.545V594.279H295.895ZM299.23 594.279C299.221 596.011 299.025 597.624 298.643 599.119C298.26 600.609 297.553 601.958 296.523 603.166L295.648 602.564C296.528 601.571 297.161 600.45 297.549 599.201C297.941 597.952 298.164 596.613 298.219 595.182H296.277V594.279H299.23ZM306.744 601.143C306.749 600.555 306.808 600.078 306.922 599.714C307.04 599.349 307.204 599.055 307.414 598.832C307.624 598.609 307.906 598.39 308.262 598.176C308.562 597.993 308.804 597.763 308.986 597.485C309.169 597.203 309.26 596.882 309.26 596.521C309.26 596.221 309.187 595.956 309.041 595.729C308.9 595.496 308.704 595.318 308.453 595.195C308.207 595.068 307.934 595.004 307.633 595.004C307.359 595.004 307.102 595.061 306.86 595.175C306.623 595.284 306.425 595.46 306.266 595.701C306.111 595.938 306.02 596.234 305.992 596.59H304.748C304.771 596.052 304.912 595.585 305.172 595.188C305.432 594.792 305.776 594.489 306.204 594.279C306.632 594.07 307.109 593.965 307.633 593.965C308.193 593.965 308.688 594.079 309.116 594.307C309.545 594.53 309.875 594.84 310.107 595.236C310.344 595.633 310.463 596.079 310.463 596.576C310.463 597.583 310.012 598.363 309.109 598.914C308.818 599.092 308.588 599.276 308.419 599.468C308.255 599.659 308.132 599.887 308.05 600.151C307.972 600.416 307.929 600.746 307.92 601.143V601.211H306.744V601.143ZM307.373 604.082C307.214 604.082 307.065 604.043 306.929 603.966C306.797 603.884 306.689 603.774 306.607 603.638C306.53 603.501 306.493 603.353 306.498 603.193C306.493 603.038 306.53 602.895 306.607 602.763C306.689 602.626 306.797 602.519 306.929 602.441C307.065 602.359 307.214 602.318 307.373 602.318C307.528 602.318 307.672 602.359 307.804 602.441C307.94 602.519 308.048 602.626 308.125 602.763C308.207 602.895 308.248 603.038 308.248 603.193C308.248 603.353 308.207 603.501 308.125 603.638C308.048 603.774 307.94 603.884 307.804 603.966C307.672 604.043 307.528 604.082 307.373 604.082Z" fill="black"/>
<g filter="url(#filter1_d_331_3899)">
<rect width="390" height="64" transform="translate(2 2)" fill="#FCFFFF"/>
<path d="M30.1377 40L30.1201 38.8398L34.4619 34.2695C35.9736 32.6699 36.6943 31.8086 36.6943 30.6309C36.6943 29.3301 35.5869 28.4688 34.1631 28.4688C32.6514 28.4688 31.6846 29.4355 31.6846 30.8594H30.1904C30.1729 28.6094 31.9131 27.0977 34.2158 27.0977C36.5186 27.0977 38.1709 28.6445 38.1709 30.6309C38.1709 32.0547 37.5029 33.1621 35.2529 35.4824L32.335 38.4883V38.5938H38.3994V40H30.1377ZM44.8682 40.1758C42.0381 40.1758 40.4209 37.8027 40.4209 33.6367C40.4209 29.5059 42.0732 27.0977 44.8682 27.0977C47.6631 27.0977 49.3154 29.5059 49.3154 33.6367C49.3154 37.8027 47.6807 40.1758 44.8682 40.1758ZM44.8682 38.7695C46.6963 38.7695 47.7686 36.9238 47.7686 33.6367C47.7686 30.3496 46.6963 28.4688 44.8682 28.4688C43.04 28.4688 41.9502 30.3496 41.9502 33.6367C41.9502 36.9238 43.0225 38.7695 44.8682 38.7695ZM51.4248 40L51.4072 38.8398L55.749 34.2695C57.2607 32.6699 57.9814 31.8086 57.9814 30.6309C57.9814 29.3301 56.874 28.4688 55.4502 28.4688C53.9385 28.4688 52.9717 29.4355 52.9717 30.8594H51.4775C51.46 28.6094 53.2002 27.0977 55.5029 27.0977C57.8057 27.0977 59.458 28.6445 59.458 30.6309C59.458 32.0547 58.79 33.1621 56.54 35.4824L53.6221 38.4883V38.5938H59.6865V40H51.4248ZM66.1377 40.1758C63.835 40.1758 62.0947 38.752 62.0068 36.8008H63.5361C63.6592 37.9434 64.7666 38.7871 66.1377 38.7871C67.79 38.7871 68.9854 37.5742 68.9854 35.9746C68.9854 34.3223 67.7373 33.1094 66.0322 33.0918C64.96 33.0742 64.1338 33.4082 63.6592 34.2344H62.1299L63.0264 27.2734H69.917V28.6797H64.3447L63.8701 32.4062H63.9932C64.5557 31.9668 65.417 31.668 66.3135 31.668C68.7393 31.668 70.5322 33.4609 70.5322 35.9395C70.5322 38.4004 68.6689 40.1758 66.1377 40.1758ZM81.7471 27.2734V40H80.1475V28.9258H80.0771L76.9834 30.9824V29.3828L80.1475 27.2734H81.7471ZM93.9287 27.4844V28.6094H84.6123V27.4844H88.585V25.7266H89.9561V27.4844H93.9287ZM89.2705 29.418C91.5205 29.4355 93.0146 30.5254 93.0322 32.248C93.0146 33.9531 91.5205 35.0605 89.2705 35.0605C87.0205 35.0605 85.4912 33.9531 85.5088 32.248C85.4912 30.5254 87.0205 29.4355 89.2705 29.418ZM89.2705 30.4902C87.7939 30.5078 86.8096 31.1934 86.8271 32.248C86.8096 33.2852 87.7939 33.9531 89.2705 33.9531C90.7295 33.9531 91.7139 33.2852 91.7314 32.248C91.7139 31.1934 90.7295 30.5078 89.2705 30.4902ZM96.7939 25.7969V30.1387H99.1494V31.2988H96.7939V35.5703H95.4229V25.7969H96.7939ZM96.7939 36.4316V41.4238H95.4229V37.5566H86.5635V36.4316H96.7939ZM113.054 25.7969V41.4238H111.665V25.7969H113.054ZM108.431 27.502C108.413 32.002 106.321 35.9746 101.083 38.4883L100.327 37.3633C104.555 35.3594 106.708 32.3623 107.024 28.627H101.048V27.502H108.431Z" fill="#1D1B20"/>
<path d="M131 37L126 32H136L131 37Z" fill="#1D1B20"/>
</g>
<defs>
<filter id="filter0_dd_331_3899" x="317" y="754" width="62" height="62" filterUnits="userSpaceOnUse" color-interpolation-filters="sRGB">
<feFlood flood-opacity="0" result="BackgroundImageFix"/>
<feColorMatrix in="SourceAlpha" type="matrix" values="0 0 0 0 0 0 0 0 0 0 0 0 0 0 0 0 0 0 127 0" result="hardAlpha"/>
<feOffset dy="1"/>
<feGaussianBlur stdDeviation="1.5"/>
<feColorMatrix type="matrix" values="0 0 0 0 0 0 0 0 0 0 0 0 0 0 0 0 0 0 0.3 0"/>
<feBlend mode="normal" in2="BackgroundImageFix" result="effect1_dropShadow_331_3899"/>
<feColorMatrix in="SourceAlpha" type="matrix" values="0 0 0 0 0 0 0 0 0 0 0 0 0 0 0 0 0 0 127 0" result="hardAlpha"/>
<feMorphology radius="3" operator="dilate" in="SourceAlpha" result="effect2_dropShadow_331_3899"/>
<feOffset dy="4"/>
<feGaussianBlur stdDeviation="4"/>
<feColorMatrix type="matrix" values="0 0 0 0 0 0 0 0 0 0 0 0 0 0 0 0 0 0 0.15 0"/>
<feBlend mode="normal" in2="effect1_dropShadow_331_3899" result="effect2_dropShadow_331_3899"/>
<feBlend mode="normal" in="SourceGraphic" in2="effect2_dropShadow_331_3899" result="shape"/>
</filter>
<filter id="filter1_d_331_3899" x="0" y="0.2" width="394" height="68" filterUnits="userSpaceOnUse" color-interpolation-filters="sRGB">
<feFlood flood-opacity="0" result="BackgroundImageFix"/>
<feColorMatrix in="SourceAlpha" type="matrix" values="0 0 0 0 0 0 0 0 0 0 0 0 0 0 0 0 0 0 127 0" result="hardAlpha"/>
<feOffset dy="0.2"/>
<feGaussianBlur stdDeviation="1"/>
<feComposite in2="hardAlpha" operator="out"/>
<feColorMatrix type="matrix" values="0 0 0 0 0 0 0 0 0 0 0 0 0 0 0 0 0 0 0.25 0"/>
<feBlend mode="normal" in2="BackgroundImageFix" result="effect1_dropShadow_331_3899"/>
<feBlend mode="normal" in="SourceGraphic" in2="effect1_dropShadow_331_3899" result="shape"/>
</filter>
<clipPath id="clip0_331_3899">
<path d="M328 781C328 769.954 336.954 761 348 761V761C359.046 761 368 769.954 368 781V781C368 792.046 359.046 801 348 801V801C336.954 801 328 792.046 328 781V781Z" fill="white"/>
</clipPath>
</defs>
</svg>
